<svg width="33" height="30" viewBox="0 0 33 30" fill="none" xmlns="http://www.w3.org/2000/svg">
<path d="M31.8056 26.7879L29.7783 9.72795C29.729 9.31107 29.5277 8.92701 29.213 8.64924C28.8982 8.37147 28.4921 8.21951 28.0723 8.22241H22.7184V7.65375C22.7184 5.99474 22.0593 4.40367 20.8862 3.23058C19.7131 2.05748 18.1221 1.39844 16.4631 1.39844C14.804 1.39844 13.213 2.05748 12.0399 3.23058C10.8668 4.40367 10.2077 5.99474 10.2077 7.65375V8.22241H4.85234C4.43257 8.21951 4.02645 8.37147 3.7117 8.64924C3.39695 8.92701 3.19567 9.31107 3.14635 9.72795L1.11906 26.7879C1.09107 27.0263 1.1137 27.2679 1.18548 27.497C1.25726 27.726 1.37657 27.9374 1.53561 28.1171C1.69759 28.2993 1.89645 28.445 2.11899 28.5445C2.34154 28.644 2.5827 28.6951 2.82648 28.6943H30.0996C30.3429 28.6947 30.5835 28.6434 30.8056 28.5439C31.0276 28.4444 31.226 28.299 31.3877 28.1171C31.5469 27.9375 31.6665 27.7262 31.7385 27.4971C31.8106 27.2681 31.8334 27.0264 31.8056 26.7879ZM11.3451 7.65375C11.3451 6.29638 11.8843 4.9946 12.8441 4.03479C13.8039 3.07498 15.1057 2.53577 16.4631 2.53577C17.8204 2.53577 19.1222 3.07498 20.082 4.03479C21.0418 4.9946 21.581 6.29638 21.581 7.65375V8.22241H11.3451V7.65375ZM30.5375 27.3622C30.4826 27.424 30.4151 27.4734 30.3396 27.507C30.2641 27.5406 30.1823 27.5576 30.0996 27.557H2.82648C2.74383 27.5576 2.662 27.5406 2.58649 27.507C2.51097 27.4734 2.4435 27.424 2.3886 27.3622C2.33473 27.3035 2.29415 27.2339 2.26962 27.1581C2.24509 27.0823 2.23718 27.0021 2.24644 26.923L4.27231 9.86301C4.28842 9.72379 4.35538 9.59543 4.46033 9.50255C4.56527 9.40967 4.70083 9.35881 4.84097 9.35974H10.2077V13.3404C10.2077 13.4912 10.2677 13.6359 10.3743 13.7425C10.4809 13.8491 10.6256 13.9091 10.7764 13.9091C10.9272 13.9091 11.0719 13.8491 11.1785 13.7425C11.2852 13.6359 11.3451 13.4912 11.3451 13.3404V9.35974H21.581V13.3404C21.581 13.4912 21.6409 13.6359 21.7476 13.7425C21.8542 13.8491 21.9989 13.9091 22.1497 13.9091C22.3005 13.9091 22.4452 13.8491 22.5518 13.7425C22.6585 13.6359 22.7184 13.4912 22.7184 13.3404V9.35974H28.0738C28.2151 9.35704 28.3524 9.40709 28.4589 9.50014C28.5653 9.59319 28.6333 9.72256 28.6495 9.86301L30.6754 26.923C30.6852 27.0018 30.678 27.0818 30.6542 27.1576C30.6304 27.2334 30.5906 27.3032 30.5375 27.3622Z" fill="black" stroke="black"/>
</svg>
