<svg width="30" height="26" viewBox="0 0 30 26" fill="none" xmlns="http://www.w3.org/2000/svg">
<path d="M21.3242 0.904297C18.5663 0.904297 16.1891 2.25986 14.8925 4.50537C13.5958 2.25986 11.2187 0.904297 8.46077 0.904297C6.48278 0.906761 4.58649 1.72045 3.18784 3.16688C1.78919 4.61331 1.00238 6.57438 1 8.61994C1 12.4232 3.31541 16.3981 7.86906 20.4315C9.97168 22.2817 12.2418 23.918 14.6481 25.3176C14.7232 25.3596 14.8071 25.3815 14.8925 25.3815C14.9778 25.3815 15.0618 25.3596 15.1369 25.3176C17.5431 23.918 19.8133 22.2817 21.9159 20.4315C26.4695 16.3981 28.7849 12.4232 28.7849 8.61994C28.7826 6.57438 27.9958 4.61331 26.5971 3.16688C25.1985 1.72045 23.3022 0.906761 21.3242 0.904297ZM14.8925 24.2401C13.0916 23.1759 2.02907 16.3449 2.02907 8.61994C2.03111 6.85652 2.70939 5.16594 3.91513 3.91901C5.12086 2.67209 6.75561 1.97064 8.46077 1.96852C11.1762 1.96852 13.4582 3.47307 14.4165 5.89419C14.4553 5.99178 14.5212 6.07526 14.606 6.134C14.6907 6.19275 14.7904 6.22412 14.8925 6.22412C14.9945 6.22412 15.0942 6.19275 15.179 6.134C15.2637 6.07526 15.3297 5.99178 15.3684 5.89419C16.3267 3.47307 18.6087 1.96852 21.3242 1.96852C23.0293 1.97064 24.6641 2.67209 25.8698 3.91901C27.0756 5.16594 27.7538 6.85652 27.7559 8.61994C27.7559 16.3356 16.6933 23.1812 14.8925 24.2401Z" fill="black" stroke="black"/>
</svg>
