<svg width="492" height="64" viewBox="0 0 492 64" fill="none" xmlns="http://www.w3.org/2000/svg">
<path d="M0 50.9125V2.19385C0 1.58865 0.228802 1.0591 0.610138 0.680851C0.991474 0.302601 1.52534 0.0756501 2.13548 0.0756501H10.7537C11.3638 0.0756501 11.8977 0.302601 12.279 0.680851C12.6604 1.0591 12.8892 1.58865 12.8892 2.19385V48.87C12.8892 49.4752 13.118 50.0047 13.4993 50.383C13.8806 50.7612 14.4145 50.9882 15.0246 50.9882H49.2686C49.8788 50.9882 50.4126 50.7612 50.794 50.383C51.1753 50.0047 51.4041 49.4752 51.4041 48.87V2.19385C51.4041 1.58865 51.6329 1.0591 52.0143 0.680851C52.3956 0.302601 52.9295 0.0756501 53.5396 0.0756501H62.1578C62.7679 0.0756501 63.3018 0.302601 63.6832 0.680851C64.0645 1.0591 64.2933 1.58865 64.2933 2.19385V50.9125C64.2933 54.3924 63.073 57.4184 60.5562 59.9149C58.0394 62.4114 55.0649 63.6217 51.4804 63.6217H12.8129C9.3046 63.6217 6.25391 62.4114 3.73709 59.9149C1.22028 57.4184 0 54.4681 0 50.9125Z" fill="white"/>
<path d="M80.0043 37.3712C79.4705 37.3712 78.9366 37.1442 78.5553 36.766C78.0977 36.3877 77.9451 35.8582 77.9451 35.253V26.7045C77.9451 26.0993 78.1739 25.5697 78.5553 25.1915C79.0129 24.8132 79.4705 24.5863 80.0043 24.5863H107.613C108.223 24.5863 108.757 24.8132 109.138 25.1915C109.52 25.5697 109.749 26.0993 109.749 26.7045V35.253C109.749 35.8582 109.52 36.3877 109.138 36.766C108.757 37.1442 108.223 37.3712 107.613 37.3712H80.0043Z" fill="white"/>
<path d="M123.553 2.19385C123.553 1.58865 123.782 1.0591 124.163 0.680851C124.544 0.302601 125.078 0.0756501 125.688 0.0756501H134.307C135.832 0.0756501 136.976 0.605201 137.815 1.73995L168.474 36.8416C175.262 29.0496 185.482 17.3239 199.134 1.73995C199.973 0.680851 201.117 0.0756501 202.642 0.0756501H211.26C211.87 0.0756501 212.404 0.302601 212.786 0.680851C213.167 1.0591 213.396 1.58865 213.396 2.19385V61.5792C213.396 62.1844 213.167 62.714 212.786 63.0922C212.328 63.4705 211.87 63.6974 211.337 63.6974H202.718C202.108 63.6974 201.574 63.4705 201.193 63.0922C200.812 62.714 200.583 62.1844 200.583 61.5792V21.6359C200.583 21.1064 200.43 20.8038 200.202 20.6525C199.896 20.5768 199.591 20.7281 199.21 21.182C193.719 27.3853 183.957 38.5816 169.923 54.7707C169.466 55.2246 169.008 55.3759 168.551 55.3759C168.093 55.3759 167.635 55.1489 167.178 54.7707C153.145 38.5816 143.382 27.3853 137.891 21.182C137.51 20.7281 137.205 20.5768 136.9 20.6525C136.595 20.7281 136.518 21.1064 136.518 21.7116V61.5792C136.518 62.1844 136.29 62.714 135.908 63.0922C135.527 63.4705 134.993 63.6974 134.383 63.6974H125.841C125.231 63.6974 124.697 63.4705 124.316 63.0922C123.858 62.714 123.705 62.1844 123.705 61.5792V2.19385H123.553Z" fill="white"/>
<path d="M220.565 12.7849C220.565 9.30497 221.785 6.27896 224.302 3.78251C226.819 1.28605 229.793 0.0756501 233.378 0.0756501H276.087C276.698 0.0756501 277.231 0.302601 277.613 0.680851C277.994 1.0591 278.223 1.58865 278.223 2.19385V10.7423C278.223 11.3475 277.994 11.8771 277.613 12.2553C277.231 12.6336 276.698 12.8605 276.087 12.8605H235.437C234.827 12.8605 234.293 13.0875 233.912 13.4657C233.53 13.844 233.301 14.3735 233.301 14.9787V23.5272C233.301 24.1324 233.53 24.6619 233.912 25.0402C234.293 25.4184 234.827 25.6454 235.437 25.6454H276.087C276.698 25.6454 277.231 25.8723 277.613 26.2506C277.994 26.6288 278.223 27.1584 278.223 27.7636V36.3121C278.223 36.9173 277.994 37.4468 277.613 37.8251C277.231 38.2033 276.698 38.4303 276.087 38.4303H235.437C234.827 38.4303 234.293 38.6572 233.912 39.0355C233.53 39.4137 233.301 39.9433 233.301 40.5485V49.0969C233.301 49.7021 233.53 50.2317 233.912 50.6099C234.293 50.9882 234.827 51.2151 235.437 51.2151H276.087C276.698 51.2151 277.231 51.4421 277.613 51.8203C277.994 52.1986 278.223 52.7281 278.223 53.3333V61.8818C278.223 62.487 277.994 63.0166 277.613 63.3948C277.231 63.7731 276.698 64 276.087 64H233.378C229.869 64 226.819 62.7896 224.302 60.2931C221.785 57.7967 220.565 54.8463 220.565 51.2908V12.7849Z" fill="white"/>
<path d="M351.516 12.7849V38.2033C351.516 41.6832 350.295 44.7092 347.779 47.2057C345.262 49.7021 342.287 50.9125 338.703 50.9125H334.432C334.432 50.9125 333.822 51.0638 333.593 51.4421C333.44 51.8203 333.593 52.1229 333.745 52.3499L343.66 62.0331C343.66 62.0331 343.889 62.6383 343.813 63.0165C343.66 63.3948 343.355 63.5461 342.974 63.5461H329.093C327.644 63.5461 326.424 63.0165 325.509 62.0331L315.746 52.3499C314.679 51.3664 313.458 50.9125 312.086 50.9125H302.4C301.789 50.9125 301.256 51.1395 300.874 51.5177C300.493 51.896 300.264 52.4255 300.264 53.0307V61.5792C300.264 62.1844 300.035 62.714 299.654 63.0922C299.273 63.4705 298.739 63.6974 298.129 63.6974H289.51C288.9 63.6974 288.366 63.4705 287.985 63.0922C287.604 62.714 287.375 62.1844 287.375 61.5792V12.7849C287.375 9.30497 288.595 6.27896 291.112 3.78251C293.629 1.28605 296.603 0.0756501 300.188 0.0756501H338.627C342.135 0.0756501 345.186 1.28605 347.702 3.78251C350.219 6.27896 351.439 9.22931 351.439 12.7849H351.516ZM336.567 12.7849H302.323C301.713 12.7849 301.179 13.0118 300.798 13.3901C300.417 13.7683 300.188 14.2979 300.188 14.9031V36.1608C300.188 36.766 300.417 37.2955 300.798 37.6738C301.179 38.052 301.713 38.279 302.323 38.279H336.567C337.177 38.279 337.711 38.052 338.093 37.6738C338.474 37.2955 338.703 36.766 338.703 36.1608V14.9031C338.703 14.2979 338.474 13.7683 338.093 13.3901C337.711 13.0118 337.177 12.7849 336.567 12.7849Z" fill="white"/>
<path d="M360.744 12.7849C360.744 9.30497 361.964 6.27896 364.481 3.78251C366.998 1.28605 369.972 0.0756501 373.557 0.0756501H416.267C416.877 0.0756501 417.411 0.302601 417.792 0.680851C418.173 1.0591 418.402 1.58865 418.402 2.19385V10.7423C418.402 11.3475 418.173 11.8771 417.792 12.2553C417.411 12.6336 416.877 12.8605 416.267 12.8605H375.616C375.006 12.8605 374.472 13.0875 374.091 13.4657C373.709 13.844 373.481 14.3735 373.481 14.9787V48.9456C373.481 49.5508 373.709 50.0804 374.091 50.4586C374.472 50.8369 375.006 51.0638 375.616 51.0638H416.267C416.877 51.0638 417.411 51.2908 417.792 51.669C418.173 52.0473 418.402 52.5768 418.402 53.182V61.7305C418.402 62.3357 418.173 62.8652 417.792 63.2435C417.411 63.6217 416.877 63.8487 416.267 63.8487H373.557C370.049 63.8487 366.998 62.6383 364.481 60.1418C361.964 57.6454 360.744 54.695 360.744 51.1395V12.7849Z" fill="white"/>
<path d="M427.707 2.1182C427.707 1.513 427.935 0.983452 428.317 0.605201C428.698 0.22695 429.232 0 429.842 0H438.46C439.071 0 439.604 0.22695 439.986 0.605201C440.367 0.983452 440.596 1.513 440.596 2.1182V23.3759C440.596 23.9811 440.825 24.5106 441.206 24.8889C441.587 25.2671 442.121 25.4941 442.731 25.4941H476.975C477.585 25.4941 478.119 25.2671 478.501 24.8889C478.882 24.5106 479.111 23.9811 479.111 23.3759V2.1182C479.111 1.513 479.34 0.983452 479.721 0.605201C480.102 0.22695 480.636 0 481.246 0H489.865C490.475 0 491.009 0.22695 491.39 0.605201C491.771 0.983452 492 1.513 492 2.1182V61.5035C492 62.1087 491.771 62.6383 491.39 63.0165C491.009 63.3948 490.475 63.6217 489.865 63.6217H481.246C480.636 63.6217 480.102 63.3948 479.721 63.0165C479.34 62.6383 479.111 62.1087 479.111 61.5035V40.2459C479.111 39.6407 478.882 39.1111 478.501 38.7329C478.119 38.3546 477.585 38.1277 476.975 38.1277H442.731C442.121 38.1277 441.587 38.3546 441.206 38.7329C440.825 39.1111 440.596 39.6407 440.596 40.2459V61.5035C440.596 62.1087 440.367 62.6383 439.986 63.0165C439.604 63.3948 439.071 63.6217 438.46 63.6217H429.842C429.232 63.6217 428.698 63.3948 428.317 63.0165C427.935 62.6383 427.707 62.1087 427.707 61.5035V2.1182Z" fill="white"/>
</svg>
