<svg width="270" height="35" viewBox="0 0 270 35" fill="none" xmlns="http://www.w3.org/2000/svg">
<path d="M0 27.8428V1.19976C0 0.868794 0.125562 0.579196 0.334832 0.37234C0.544102 0.165485 0.83708 0.0413712 1.17191 0.0413712H5.90141C6.23624 0.0413712 6.52922 0.165485 6.73849 0.37234C6.94776 0.579196 7.07332 0.868794 7.07332 1.19976V26.7258C7.07332 27.0567 7.19888 27.3463 7.40815 27.5532C7.61742 27.76 7.9104 27.8842 8.24523 27.8842H27.0377C27.3725 27.8842 27.6655 27.76 27.8747 27.5532C28.084 27.3463 28.2096 27.0567 28.2096 26.7258V1.19976C28.2096 0.868794 28.3351 0.579196 28.5444 0.37234C28.7537 0.165485 29.0467 0.0413712 29.3815 0.0413712H34.111C34.4458 0.0413712 34.7388 0.165485 34.9481 0.37234C35.1573 0.579196 35.2829 0.868794 35.2829 1.19976V27.8428C35.2829 29.7459 34.6132 31.4007 33.2321 32.766C31.8509 34.1312 30.2186 34.7931 28.2514 34.7931H7.03147C5.10618 34.7931 3.43203 34.1312 2.05084 32.766C0.669664 31.4007 0 29.7872 0 27.8428Z" fill="#181818"/>
<path d="M43.9048 20.4374C43.6118 20.4374 43.3189 20.3132 43.1096 20.1064C42.8585 19.8995 42.7748 19.6099 42.7748 19.279V14.604C42.7748 14.273 42.9003 13.9835 43.1096 13.7766C43.3607 13.5697 43.6118 13.4456 43.9048 13.4456H59.056C59.3908 13.4456 59.6838 13.5697 59.893 13.7766C60.1023 13.9835 60.2279 14.273 60.2279 14.604V19.279C60.2279 19.6099 60.1023 19.8995 59.893 20.1064C59.6838 20.3132 59.3908 20.4374 59.056 20.4374H43.9048Z" fill="#181818"/>
<path d="M67.8034 1.19976C67.8034 0.868794 67.929 0.579196 68.1383 0.37234C68.3475 0.165485 68.6405 0.0413712 68.9753 0.0413712H73.7049C74.5419 0.0413712 75.1697 0.330969 75.6301 0.951537L92.4554 20.1478C96.1804 15.8865 101.789 9.474 109.281 0.951537C109.741 0.372341 110.369 0.0413712 111.206 0.0413712H115.936C116.27 0.0413712 116.563 0.165485 116.773 0.37234C116.982 0.579196 117.107 0.868794 117.107 1.19976V33.6761C117.107 34.0071 116.982 34.2967 116.773 34.5035C116.521 34.7104 116.27 34.8345 115.977 34.8345H111.248C110.913 34.8345 110.62 34.7104 110.411 34.5035C110.202 34.2967 110.076 34.0071 110.076 33.6761V11.8322C110.076 11.5426 109.992 11.3771 109.867 11.2943C109.699 11.253 109.532 11.3357 109.323 11.5839C106.309 14.9764 100.952 21.0993 93.2507 29.9527C92.9995 30.2009 92.7484 30.2837 92.4973 30.2837C92.2462 30.2837 91.995 30.1596 91.7439 29.9527C84.0428 21.0993 78.6855 14.9764 75.672 11.5839C75.4627 11.3357 75.2953 11.253 75.1279 11.2943C74.9605 11.3357 74.9186 11.5426 74.9186 11.8735V33.6761C74.9186 34.0071 74.7931 34.2967 74.5838 34.5035C74.3745 34.7104 74.0815 34.8345 73.7467 34.8345H69.0591C68.7242 34.8345 68.4312 34.7104 68.222 34.5035C67.9709 34.2967 67.8871 34.0071 67.8871 33.6761V1.19976H67.8034Z" fill="#181818"/>
<path d="M121.042 6.99173C121.042 5.08865 121.711 3.43381 123.093 2.06856C124.474 0.70331 126.106 0.0413712 128.073 0.0413712H151.511C151.846 0.0413712 152.139 0.165485 152.348 0.37234C152.558 0.579196 152.683 0.868794 152.683 1.19976V5.8747C152.683 6.20567 152.558 6.49527 152.348 6.70213C152.139 6.90898 151.846 7.0331 151.511 7.0331H129.203C128.868 7.0331 128.575 7.15721 128.366 7.36407C128.157 7.57092 128.031 7.86052 128.031 8.19149V12.8664C128.031 13.1974 128.157 13.487 128.366 13.6939C128.575 13.9007 128.868 14.0248 129.203 14.0248H151.511C151.846 14.0248 152.139 14.1489 152.348 14.3558C152.558 14.5626 152.683 14.8522 152.683 15.1832V19.8582C152.683 20.1891 152.558 20.4787 152.348 20.6856C152.139 20.8924 151.846 21.0165 151.511 21.0165H129.203C128.868 21.0165 128.575 21.1407 128.366 21.3475C128.157 21.5544 128.031 21.844 128.031 22.1749V26.8499C128.031 27.1809 128.157 27.4704 128.366 27.6773C128.575 27.8842 128.868 28.0083 129.203 28.0083H151.511C151.846 28.0083 152.139 28.1324 152.348 28.3392C152.558 28.5461 152.683 28.8357 152.683 29.1667V33.8416C152.683 34.1726 152.558 34.4622 152.348 34.669C152.139 34.8759 151.846 35 151.511 35H128.073C126.148 35 124.474 34.3381 123.093 32.9728C121.711 31.6076 121.042 29.9941 121.042 28.0496V6.99173Z" fill="#181818"/>
<path d="M192.905 6.99173V20.8924C192.905 22.7955 192.235 24.4504 190.854 25.8156C189.473 27.1809 187.841 27.8428 185.874 27.8428H183.53C183.53 27.8428 183.195 27.9255 183.069 28.1324C182.986 28.3392 183.069 28.5047 183.153 28.6288L188.594 33.9244C188.594 33.9244 188.72 34.2553 188.678 34.4622C188.594 34.669 188.427 34.7518 188.217 34.7518H180.6C179.805 34.7518 179.135 34.4622 178.633 33.9244L173.275 28.6288C172.69 28.091 172.02 27.8428 171.266 27.8428H165.951C165.616 27.8428 165.323 27.9669 165.114 28.1738C164.905 28.3806 164.779 28.6702 164.779 29.0012V33.6761C164.779 34.0071 164.654 34.2967 164.444 34.5035C164.235 34.7104 163.942 34.8345 163.607 34.8345H158.878C158.543 34.8345 158.25 34.7104 158.041 34.5035C157.831 34.2967 157.706 34.0071 157.706 33.6761V6.99173C157.706 5.08865 158.375 3.43381 159.757 2.06856C161.138 0.70331 162.77 0.0413712 164.737 0.0413712H185.832C187.757 0.0413712 189.431 0.70331 190.812 2.06856C192.193 3.43381 192.863 5.04728 192.863 6.99173H192.905ZM184.702 6.99173H165.909C165.574 6.99173 165.281 7.11584 165.072 7.3227C164.863 7.52955 164.737 7.81915 164.737 8.15012V19.7754C164.737 20.1064 164.863 20.396 165.072 20.6028C165.281 20.8097 165.574 20.9338 165.909 20.9338H184.702C185.036 20.9338 185.329 20.8097 185.539 20.6028C185.748 20.396 185.874 20.1064 185.874 19.7754V8.15012C185.874 7.81915 185.748 7.52955 185.539 7.3227C185.329 7.11584 185.036 6.99173 184.702 6.99173Z" fill="#181818"/>
<path d="M197.969 6.99173C197.969 5.08865 198.639 3.43381 200.02 2.06856C201.401 0.70331 203.034 0.0413712 205.001 0.0413712H228.439C228.774 0.0413712 229.067 0.165485 229.276 0.37234C229.485 0.579196 229.611 0.868794 229.611 1.19976V5.8747C229.611 6.20567 229.485 6.49527 229.276 6.70213C229.067 6.90898 228.774 7.0331 228.439 7.0331H206.131C205.796 7.0331 205.503 7.15721 205.294 7.36407C205.084 7.57092 204.959 7.86052 204.959 8.19149V26.7671C204.959 27.0981 205.084 27.3877 205.294 27.5946C205.503 27.8014 205.796 27.9255 206.131 27.9255H228.439C228.774 27.9255 229.067 28.0496 229.276 28.2565C229.485 28.4634 229.611 28.753 229.611 29.0839V33.7589C229.611 34.0898 229.485 34.3794 229.276 34.5863C229.067 34.7931 228.774 34.9173 228.439 34.9173H205.001C203.075 34.9173 201.401 34.2553 200.02 32.8901C198.639 31.5248 197.969 29.9114 197.969 27.9669V6.99173Z" fill="#181818"/>
<path d="M234.717 1.15839C234.717 0.827423 234.843 0.537825 235.052 0.330969C235.261 0.124113 235.554 0 235.889 0H240.619C240.953 0 241.246 0.124113 241.456 0.330969C241.665 0.537825 241.79 0.827423 241.79 1.15839V12.7837C241.79 13.1147 241.916 13.4043 242.125 13.6111C242.335 13.818 242.627 13.9421 242.962 13.9421H261.755C262.09 13.9421 262.383 13.818 262.592 13.6111C262.801 13.4043 262.927 13.1147 262.927 12.7837V1.15839C262.927 0.827423 263.052 0.537825 263.262 0.330969C263.471 0.124113 263.764 0 264.099 0H268.828C269.163 0 269.456 0.124113 269.665 0.330969C269.874 0.537825 270 0.827423 270 1.15839V33.6348C270 33.9657 269.874 34.2553 269.665 34.4622C269.456 34.669 269.163 34.7931 268.828 34.7931H264.099C263.764 34.7931 263.471 34.669 263.262 34.4622C263.052 34.2553 262.927 33.9657 262.927 33.6348V22.0095C262.927 21.6785 262.801 21.3889 262.592 21.182C262.383 20.9752 262.09 20.8511 261.755 20.8511H242.962C242.627 20.8511 242.335 20.9752 242.125 21.182C241.916 21.3889 241.79 21.6785 241.79 22.0095V33.6348C241.79 33.9657 241.665 34.2553 241.456 34.4622C241.246 34.669 240.953 34.7931 240.619 34.7931H235.889C235.554 34.7931 235.261 34.669 235.052 34.4622C234.843 34.2553 234.717 33.9657 234.717 33.6348V1.15839Z" fill="#181818"/>
</svg>
