<svg width="31" height="30" viewBox="0 0 31 30" fill="none" xmlns="http://www.w3.org/2000/svg">
<path d="M30.3087 28.2141C27.8918 24.0358 24.0177 21.1829 19.5291 20.1544C21.662 19.2805 23.4253 17.6932 24.5177 15.6636C25.6101 13.634 25.9639 11.288 25.5186 9.02648C25.0733 6.76497 23.8565 4.72825 22.0762 3.2643C20.2958 1.80035 18.0624 1 15.7575 1C13.4526 1 11.2191 1.80035 9.4388 3.2643C7.65847 4.72825 6.44171 6.76497 5.9964 9.02648C5.55109 11.288 5.90486 13.634 6.99728 15.6636C8.08969 17.6932 9.85296 19.2805 11.9858 20.1544C7.50314 21.1785 3.62322 24.0358 1.20631 28.2141C1.13635 28.3479 1.12077 28.5035 1.16282 28.6484C1.20488 28.7934 1.30132 28.9165 1.43199 28.992C1.56267 29.0676 1.71748 29.0897 1.86408 29.0538C2.01069 29.0179 2.13775 28.9267 2.21872 28.7993C5.07746 23.8529 10.1424 20.899 15.7575 20.899C21.3726 20.899 26.4375 23.8529 29.2963 28.7993C29.3476 28.8882 29.4213 28.962 29.5102 29.0134C29.599 29.0648 29.6998 29.0918 29.8025 29.0919C29.9053 29.0923 30.0063 29.065 30.0951 29.0129C30.2292 28.9352 30.327 28.8075 30.3671 28.6577C30.4071 28.508 30.3861 28.3484 30.3087 28.2141ZM6.97938 10.9505C6.97938 9.21438 7.49421 7.51722 8.45876 6.07367C9.42331 4.63012 10.7943 3.50501 12.3983 2.84061C14.0022 2.17622 15.7672 2.00238 17.47 2.34109C19.1728 2.67979 20.7369 3.51583 21.9645 4.74347C23.1922 5.97111 24.0282 7.53521 24.3669 9.238C24.7056 10.9408 24.5318 12.7058 23.8674 14.3098C23.203 15.9138 22.0779 17.2847 20.6343 18.2493C19.1908 19.2138 17.4936 19.7286 15.7575 19.7286C13.4302 19.7259 11.199 18.8002 9.55342 17.1546C7.9078 15.509 6.98209 13.2778 6.97938 10.9505Z" fill="black" stroke="black"/>
</svg>
